<svg width="78" height="87" viewBox="0 0 78 87" fill="none" xmlns="http://www.w3.org/2000/svg">
<path d="M77.152 38.2886C75.2337 28.0434 67.3962 20.1264 57.674 18.5941C56.5076 18.409 55.2538 18.3112 53.9354 18.3112C53.5211 18.3112 53.1067 18.3332 52.7143 18.3544C50.3595 18.4629 48.0162 18.9196 45.7276 19.7359L45.4767 19.8231C44.1796 20.3124 42.8498 20.628 41.52 20.8131C41.6614 15.8321 43.3729 12.9279 47.4278 10.6225C47.9509 10.3289 48.1258 9.66512 47.8308 9.14319C47.5365 8.62125 46.8712 8.43616 46.3481 8.72974C43.4923 10.3502 41.5846 12.3408 40.4837 14.9292C38.903 9.93751 35.6443 5.73934 31.175 3.03094C26.3241 0.0943356 20.6347 -0.743278 15.1624 0.670935L15.0537 0.692935C14.4652 0.845418 14.1162 1.43259 14.2691 2.01976L14.2911 2.12824C16.7652 11.6877 25.3979 18.0608 34.8163 18.0608C36.1895 18.0608 37.5741 17.9197 38.9586 17.6473C39.1 18.5395 39.2201 19.8011 39.2855 21.0081C37.051 21.0513 34.8383 20.6925 32.7346 19.9096C32.6038 19.8443 32.4951 19.8117 32.4403 19.8011C30.0528 18.931 27.7095 18.4637 25.3115 18.3544C23.7961 18.2672 22.1614 18.3324 20.3298 18.5934C10.5855 20.1266 2.75865 28.0443 0.861455 38.2879C0.295002 41.3762 0 44.5412 0 47.6955C0 63.3124 7.17224 77.7334 18.2578 84.4336C21.0702 86.1298 24.1108 87 26.9993 87C28.9282 87 30.7925 86.6086 32.4927 85.8256C32.5361 85.8036 32.5908 85.7824 32.6562 85.7498C36.711 84.0209 41.3217 84.0209 45.289 85.7278C45.3977 85.771 45.4851 85.815 45.5505 85.8363L45.7467 85.9235H45.8121C50.3901 87.5333 55.644 86.9461 59.9277 84.3251C70.9039 77.5931 78 63.2051 78 47.6958C78 44.5201 77.7164 41.3553 77.1499 38.2882L77.152 38.2886ZM21.6823 27.1847C15.589 28.1527 10.6622 33.2422 9.43045 39.8543C9.34301 40.3763 8.88529 40.7465 8.36218 40.7465C8.2968 40.7465 8.23141 40.7465 8.16602 40.7245C7.57754 40.616 7.18519 40.05 7.29392 39.4629C8.68913 31.9366 14.3354 26.1399 21.3441 25.0415C21.9326 24.9436 22.4998 25.3457 22.5865 25.9442C22.6846 26.542 22.2816 27.0973 21.6817 27.1838L21.6823 27.1847Z" fill="black"/>
</svg>
