<svg width="78" height="87" viewBox="0 0 78 87" fill="none" xmlns="http://www.w3.org/2000/svg">
<path d="M77.9504 34.9978L0 62.439V72.1363L77.9504 44.6659V34.9978Z" fill="black"/>
<path d="M70.396 50.9427C68.1843 56.5264 64.7059 60.5161 61.6539 56.515C58.6718 52.603 52.6321 55.1117 51.3214 59.3012C48.8559 67.1855 42.4958 69.689 37.9863 66.4667C33.1822 63.028 21.2007 64.3621 16.0223 71.7502C12.6094 76.6085 5.77582 80.203 0.00195312 77.7489V83.8432C0.00195312 84.6143 0.56194 85.3331 1.18569 85.783C1.80642 86.2305 2.70146 86.352 3.43168 86.109L76.2976 61.9385C77.2792 61.6161 77.9522 60.7006 77.9522 59.6703V48.8121C75.0651 46.4103 71.7106 47.6254 70.397 50.9426L70.396 50.9427Z" fill="black"/>
<path d="M30.6272 23.4661C35.2202 26.2463 45.042 24.3238 45.042 18.0093C45.042 13.6009 41.5165 14.4323 42.4062 9.59617C44.1355 0.181545 33.0175 0 33.0175 0C38.9939 3.77918 34.689 6.83357 33.0175 7.87588C24.0414 13.4619 26.051 20.6974 30.6272 23.4666V23.4661Z" fill="black"/>
<path d="M77.9999 17.5623C78.0113 16.3094 77.0531 15.2616 75.8056 15.1575L45.1139 12.6168C45.1633 12.6776 45.1921 12.7209 45.2469 12.784C46.018 13.7194 47.011 15.0246 47.1669 17.4324L67.3616 19.1155L7.95994 39.2209L23.4983 15.4615L24.6646 15.5565C24.8408 14.2946 25.3316 12.7385 26.4341 11.067L22.5341 10.75C21.6709 10.6778 20.839 11.079 20.3543 11.7978L0.846301 40.8019C0.421649 41.4455 0 42.1962 0 42.9667V58.7499L77.8688 31.0886L77.9999 17.5623Z" fill="black"/>
</svg>
