<svg width="85" height="95" viewBox="0 0 85 95" fill="none" xmlns="http://www.w3.org/2000/svg">
<path d="M73.992 19.2164C71.5014 17.8208 68.7923 16.9632 66.1434 16.5044C66.0078 15.9451 65.8355 15.4005 65.6303 14.8743C63.619 9.71791 58.0836 5.33238 50.2635 7.15099C47.009 7.90816 44.2935 10.0463 42.1912 13.5081C41.9559 13.8958 42.079 14.4001 42.466 14.6361C42.8567 14.8714 43.3603 14.7475 43.5941 14.3612C45.4588 11.2916 47.8271 9.40341 50.6349 8.75173C57.5035 7.15387 62.3463 10.9756 64.0996 15.4723C64.2 15.7281 64.2902 15.9897 64.3715 16.2551C60.014 15.7772 55.9996 16.3232 53.6233 17.2578C50.1644 18.6174 48.0095 21.0686 47.7111 23.9836C47.4693 26.3422 48.5526 28.6138 50.5404 29.9126C53.187 31.6424 56.8732 31.4049 60.6561 29.2632C65.3126 26.6252 66.8467 22.2436 66.4348 18.2078C68.6726 18.6476 70.9844 19.4165 73.1899 20.6515C78.5553 23.6567 81.9013 28.7089 83.1341 35.667C83.2044 36.065 83.5504 36.345 83.9411 36.345C83.9887 36.345 84.0364 36.3406 84.0855 36.3325C84.5311 36.2527 84.8294 35.8275 84.7503 35.3812C83.4287 27.9114 79.8093 22.4751 73.9917 19.2163L73.992 19.2164ZM59.8478 27.8324C56.6191 29.6612 53.5546 29.9177 51.4399 28.5361C49.9695 27.5759 49.167 25.8945 49.3458 24.1492C49.5796 21.8668 51.3586 19.9104 54.226 18.7846C55.612 18.2393 58.1914 17.713 61.294 17.713C62.389 17.713 63.5494 17.779 64.7449 17.9322C65.2506 21.5112 63.9958 25.4832 59.8478 27.8324Z" fill="black"/>
<path d="M16.8952 28.2814C16.9582 28.266 17.0213 28.2594 17.0843 28.2594C17.4544 28.2594 17.7901 28.5123 17.8818 28.8875C18.1185 29.866 20.7125 32.9094 22.6593 34.9646C24.5884 34.4435 32.2179 32.06 33.1606 26.7569C33.5718 24.4525 32.9832 22.3254 31.5026 20.767C30.1488 19.3429 28.1236 18.5257 26.4554 18.7375C24.3233 19.0072 23.1006 18.1006 22.49 17.166C18.8134 18.1145 6.90051 21.4568 0.177734 26.5158C9.00565 30.0699 16.8139 28.3005 16.8961 28.2815L16.8952 28.2814Z" fill="black"/>
<path d="M23.7775 12.0443C27.5318 9.12121 25.5659 6.36384 25.4802 6.24713C24.1411 4.28647 22.3958 3.12179 20.2754 2.75889C15.6276 1.96581 10.3913 5.11903 8.86014 6.13135C9.70087 9.51319 11.0092 11.4102 11.0231 11.4292C11.1609 11.6264 11.2063 11.8741 11.1447 12.1065C11.0846 12.3388 10.9249 12.5345 10.7086 12.6386C3.86783 15.9581 1.07086 21.5324 0 24.6198C6.97346 19.7792 18.1307 16.6032 21.9108 15.6196C21.633 13.8986 22.9331 12.5684 23.7775 12.0443Z" fill="black"/>
<path d="M26.9019 48.9332C26.9019 55.2703 32.0576 60.4261 38.3948 60.4261C44.732 60.4261 49.8878 55.2703 49.8878 48.9332C49.8878 42.596 44.732 37.4402 38.3948 37.4402C32.0576 37.4402 26.9019 42.596 26.9019 48.9332ZM31.8274 48.9332H30.1856C30.1856 45.7975 32.0151 42.8921 34.8488 41.5294L35.5605 43.0093C33.2919 44.0992 31.8274 46.4242 31.8274 48.9332ZM38.3948 42.3657C37.8913 42.3657 37.3899 42.4229 36.904 42.5365L36.5316 40.9372C37.14 40.795 37.7659 40.7239 38.3948 40.7239V42.3657Z" fill="black"/>
<path d="M39.2164 66.9935C39.2164 65.2791 38.8133 63.586 38.0817 62.0526C34.0614 61.9565 30.4866 60.0531 28.1398 57.1174C25.6551 60.2339 21.8978 62.0679 17.8723 62.0679C17.7023 62.0679 17.5381 62.0489 17.3702 62.0423C16.6343 63.5793 16.2305 65.2761 16.2305 66.9936C16.2305 73.3307 21.3863 78.4865 27.7234 78.4865C34.0606 78.4865 39.2164 73.3307 39.2164 66.9935ZM19.987 64.2339L21.5328 64.7887C21.3819 65.2087 21.2748 65.65 21.214 66.1007L19.5868 65.8823C19.6638 65.3165 19.7986 64.7623 19.987 64.2339ZM24.733 74.6391C21.7762 73.4803 19.7341 70.687 19.531 67.5249L21.17 67.4194C21.3327 69.9487 22.9665 72.183 25.3333 73.1116L24.733 74.6391Z" fill="black"/>
<path d="M36.5614 35.9409C37.1625 35.8573 37.7708 35.7979 38.3939 35.7979C38.6203 35.7979 38.8424 35.8206 39.066 35.8324C38.9964 30.0251 39.6223 14.28 47.5229 1.35159L45.4458 0C37.0254 13.7439 36.4501 29.9699 36.5614 35.9406L36.5614 35.9409Z" fill="black"/>
<path d="M27.15 55.6844C25.9589 53.7083 25.2612 51.4039 25.2612 48.9336C25.2612 46.4634 25.959 44.1584 27.15 42.1823C24.987 39.2131 21.5647 37.4407 17.8728 37.4407C11.5357 37.4407 6.37988 42.5965 6.37988 48.9336C6.37988 55.2708 11.5357 60.4266 17.8728 60.4266C21.5641 60.4266 24.9863 58.6543 27.15 55.6844ZM11.3054 48.9336H9.66359C9.66359 45.798 11.4931 42.8926 14.3268 41.5299L15.0385 43.0098C12.77 44.0997 11.3054 46.4247 11.3054 48.9336ZM16.0096 40.9377C16.618 40.7955 17.2439 40.7244 17.8728 40.7244V42.3663C17.3692 42.3663 16.8679 42.4235 16.3819 42.5371L16.0096 40.9377Z" fill="black"/>
<path d="M58.9191 62.0677C54.8936 62.0677 51.1363 60.2338 48.6516 57.1165C46.5303 59.7699 43.4093 61.5845 39.8603 61.9805C40.5119 63.5615 40.8586 65.2707 40.8586 66.9933C40.8586 69.2003 40.3059 71.2775 39.3398 73.1047C41.4377 76.4331 45.1209 78.4862 49.0679 78.4862C55.405 78.4862 60.5608 73.3305 60.5608 66.9933C60.5608 65.2759 60.1562 63.5799 59.4203 62.042C59.2532 62.0486 59.0884 62.0677 58.9191 62.0677Z" fill="black"/>
<path d="M49.0678 80.1282C44.821 80.1282 40.8402 78.0472 38.3892 74.6301C36.0026 77.9527 32.1164 80.1282 27.7238 80.1282C27.6123 80.1282 27.5046 80.1142 27.3939 80.112C27.0744 81.1778 26.9028 82.2845 26.9028 83.4119C26.9028 89.7491 32.0586 94.9049 38.3958 94.9049C44.733 94.9049 49.8888 89.7491 49.8888 83.4119C49.8888 82.2846 49.7173 81.1778 49.3977 80.112C49.287 80.1142 49.1792 80.1282 49.0678 80.1282ZM30.2231 84.1902C30.2004 83.9337 30.1872 83.6735 30.1872 83.4118C30.1872 83.0878 30.2063 82.7631 30.2429 82.445L31.873 82.6356C31.8445 82.8921 31.8291 83.1509 31.8291 83.4118C31.8291 83.6229 31.8386 83.8311 31.8584 84.0363L30.2231 84.1902ZM38.3966 91.6211C34.8006 91.6211 31.5674 89.2141 30.5318 85.769L32.1047 85.2977C32.9323 88.053 35.5204 89.9792 38.3965 89.9792L38.3966 91.6211Z" fill="black"/>
<path d="M58.9187 37.4402C55.2275 37.4402 51.8053 39.2125 49.6416 42.1824C50.8327 44.1577 51.5304 46.4629 51.5304 48.9332C51.5304 51.4034 50.8326 53.7077 49.6416 55.6839C51.8053 58.6539 55.2277 60.4261 58.9187 60.4261C65.2559 60.4261 70.4117 55.2703 70.4117 48.9332C70.4117 42.596 65.2559 37.4402 58.9187 37.4402Z" fill="black"/>
<path d="M22.1434 16.4696C22.2585 16.8133 22.5788 17.0318 22.9226 17.0318C23.0076 17.0318 23.0956 17.0178 23.1813 16.9893C32.471 13.8998 38.9628 8.69124 42.7728 4.86601C43.0931 4.54497 43.0917 4.02528 42.7706 3.70498C42.4489 3.38468 41.9307 3.38614 41.6089 3.70718C37.9257 7.40651 31.6478 12.4435 22.6647 15.4309C22.2345 15.5746 22.0021 16.0393 22.1443 16.4696L22.1434 16.4696Z" fill="black"/>
</svg>
