<svg width="82" height="92" viewBox="0 0 82 92" fill="none" xmlns="http://www.w3.org/2000/svg">
<path d="M57.1978 42.8463L72.8113 42.4896L82 42.28C80.2423 37.6566 76.7253 37.5254 76.7253 37.5254L67.6946 35.2702C67.6917 35.2622 67.6895 35.2536 67.6866 35.2464L67.1504 33.6368C67.7003 33.234 67.954 32.507 67.727 31.8247L66.8643 29.233C66.5833 28.3879 65.6687 27.9303 64.8227 28.2128L63.7576 28.568C62.9115 28.8497 62.4539 29.7633 62.7371 30.6091L63.5998 33.1993C63.8268 33.8809 64.4667 34.3111 65.1485 34.3039L65.2681 34.6641L55.9202 32.3305L55.5368 31.182C56.2705 30.7418 56.6265 29.839 56.3461 28.9946L55.348 26.0003C55.0222 25.0232 53.9664 24.4951 52.9892 24.8208L51.7576 25.2308C50.7811 25.5564 50.2521 26.612 50.5778 27.589L51.576 30.5833C51.6812 30.8982 51.8621 31.1669 52.0927 31.3759L36.5045 27.4851L32.5111 15.5772C29.0879 4.08956 23.3125 0.457393 22.6169 0.0554785L22.5989 0C22.5989 0 22.5924 0.0122483 22.5816 0.0360245C22.56 0.0237758 22.5477 0.0172921 22.5477 0.0172921L22.5672 0.0727706C22.2508 0.811286 19.8085 7.18052 23.9653 18.4269L27.9118 30.3499L17.7733 42.8104C17.8332 42.5056 17.8166 42.1821 17.7114 41.8672L16.7125 38.8729C16.3882 37.8959 15.331 37.3677 14.3552 37.6934L13.1236 38.1034C12.1471 38.4291 11.6181 39.4846 11.9438 40.4616L12.942 43.4559C13.223 44.2996 14.0504 44.8097 14.9007 44.7211L15.2827 45.8711L9.20235 53.3435L9.08272 52.9818C9.6326 52.5776 9.88556 51.852 9.65926 51.1697L8.79661 48.578C8.51483 47.7321 7.60028 47.2753 6.75426 47.5578L5.68911 47.9123C4.84376 48.194 4.38612 49.1083 4.66864 49.9541L5.53201 52.5443C5.75903 53.2274 6.39754 53.6561 7.08002 53.6489L7.61694 55.2585C7.61982 55.2664 7.62342 55.2751 7.62631 55.2823L1.75056 62.5011C1.75056 62.5011 -0.984377 64.7144 0.382701 69.467L20.5681 55.0497L27.2092 50.3051L34.0476 48.0262C34.0476 48.0262 38.773 64.3291 43.5101 71.8663L35.0256 86.7908C35.0256 86.7908 33.9828 88.8745 35.6757 92L49.9169 82.0571L67.2774 81.4742C66.7578 77.9582 64.6729 76.917 64.6729 76.917L48.9304 70.0614C48.1989 61.1898 42.2014 45.3102 42.2014 45.3102L49.0398 43.0313L57.1978 42.8463Z" fill="black"/>
</svg>
