<svg width="89" height="89" viewBox="0 0 89 89" fill="none" xmlns="http://www.w3.org/2000/svg">
<path d="M6.36962 43.9447L18.3628 48.9213C17.318 51.6753 16.4486 54.4919 15.7581 57.3552C15.5461 58.2196 15.7988 59.1324 16.4259 59.7647L29.2253 72.5824C29.8575 73.2089 30.7704 73.4616 31.6348 73.2496C34.4982 72.5566 37.3149 71.6838 40.069 70.6359L45.0457 82.6287C45.2926 83.2274 45.8228 83.6624 46.4576 83.7891C47.0925 83.9158 47.7487 83.7167 48.2063 83.259L54.8607 76.6048C57.4564 74.0027 58.8276 70.4226 58.633 66.7525L58.3085 60.4507C72.2294 49.8761 85.1216 31.9618 88.9761 2.47983C89.0776 1.80231 88.852 1.11705 88.3671 0.632865C87.8829 0.148004 87.1976 -0.0776203 86.5201 0.02388C57.0374 3.8608 39.1234 16.7061 28.5015 30.6544L22.2453 30.3673C18.5797 30.1734 15.0032 31.54 12.4023 34.1304L5.73819 40.8033C5.28889 41.261 5.09558 41.912 5.22164 42.5411C5.34771 43.1701 5.77699 43.6957 6.36853 43.9452L6.36962 43.9447ZM55.6117 21.9897C57.1212 20.4892 59.1648 19.6494 61.2924 19.654C63.4206 19.6585 65.4604 20.5067 66.9635 22.0137C68.4672 23.52 69.311 25.561 69.311 27.6891C69.311 29.8173 68.4673 31.8588 66.9635 33.3652C65.4604 34.8715 63.4207 35.7198 61.2924 35.7242C59.1648 35.7288 57.1212 34.889 55.6117 33.3892C54.0937 31.881 53.2403 29.829 53.2403 27.6893C53.2403 25.5495 54.0937 23.4982 55.6117 21.9898V21.9897ZM0.00272714 86.688C0.688653 74.065 6.81482 67.1145 10.3273 64.1306H10.3279C10.6738 63.8623 11.1483 63.83 11.5272 64.0498C11.906 64.2702 12.1136 64.6982 12.0515 65.132C11.7127 67.0314 11.6565 68.9707 11.8847 70.8869C12.0761 72.4597 12.7891 73.9234 13.9095 75.0437C15.0298 76.1647 16.4935 76.8771 18.0664 77.0684C19.9955 77.3167 21.9512 77.2766 23.8681 76.9482C24.3161 76.8693 24.7654 77.08 24.9898 77.4757C25.2147 77.8707 25.1663 78.3646 24.8695 78.7092C21.8847 82.1755 14.9336 88.3016 2.31148 88.9966C1.68891 89.0315 1.0812 88.8 0.640898 88.3591C0.199982 87.9189 -0.0314577 87.3112 0.00344687 86.6886L0.00272714 86.688Z" fill="black"/>
</svg>
